<mxfile host="app.diagrams.net" modified="2023-06-08T00:49:48.027Z" agent="Mozilla/5.0 (Windows NT 10.0; Win64; x64) AppleWebKit/537.36 (KHTML, like Gecko) Chrome/114.0.0.0 Safari/537.36" etag="_TRfgwI0T5EcQZwZs6Yj" version="21.3.7" type="device">
  <diagram name="페이지-1" id="g4dXyIzhAi_1CMddUyoG">
    <mxGraphModel dx="888" dy="1717" grid="1" gridSize="10" guides="1" tooltips="1" connect="1" arrows="1" fold="1" page="1" pageScale="1" pageWidth="1390" pageHeight="980" math="0" shadow="0">
      <root>
        <mxCell id="0" />
        <mxCell id="1" parent="0" />
        <mxCell id="ZSzvQUy0kGPGuTM8LgXg-6" style="edgeStyle=orthogonalEdgeStyle;rounded=0;orthogonalLoop=1;jettySize=auto;html=1;entryX=0;entryY=0.5;entryDx=0;entryDy=0;" edge="1" parent="1" source="ZSzvQUy0kGPGuTM8LgXg-1" target="ZSzvQUy0kGPGuTM8LgXg-2">
          <mxGeometry relative="1" as="geometry" />
        </mxCell>
        <mxCell id="ZSzvQUy0kGPGuTM8LgXg-7" style="edgeStyle=orthogonalEdgeStyle;rounded=0;orthogonalLoop=1;jettySize=auto;html=1;" edge="1" parent="1" source="ZSzvQUy0kGPGuTM8LgXg-1" target="ZSzvQUy0kGPGuTM8LgXg-3">
          <mxGeometry relative="1" as="geometry" />
        </mxCell>
        <mxCell id="ZSzvQUy0kGPGuTM8LgXg-8" style="edgeStyle=orthogonalEdgeStyle;rounded=0;orthogonalLoop=1;jettySize=auto;html=1;" edge="1" parent="1" source="ZSzvQUy0kGPGuTM8LgXg-1" target="ZSzvQUy0kGPGuTM8LgXg-4">
          <mxGeometry relative="1" as="geometry" />
        </mxCell>
        <mxCell id="ZSzvQUy0kGPGuTM8LgXg-15" style="edgeStyle=orthogonalEdgeStyle;rounded=0;orthogonalLoop=1;jettySize=auto;html=1;entryX=0;entryY=0.5;entryDx=0;entryDy=0;" edge="1" parent="1" source="ZSzvQUy0kGPGuTM8LgXg-1" target="ZSzvQUy0kGPGuTM8LgXg-4">
          <mxGeometry relative="1" as="geometry" />
        </mxCell>
        <mxCell id="ZSzvQUy0kGPGuTM8LgXg-1" value="사용자" style="shape=umlActor;verticalLabelPosition=bottom;verticalAlign=top;html=1;outlineConnect=0;" vertex="1" parent="1">
          <mxGeometry x="60" y="195" width="60" height="110" as="geometry" />
        </mxCell>
        <mxCell id="ZSzvQUy0kGPGuTM8LgXg-21" style="edgeStyle=orthogonalEdgeStyle;rounded=0;orthogonalLoop=1;jettySize=auto;html=1;" edge="1" parent="1" source="ZSzvQUy0kGPGuTM8LgXg-2" target="ZSzvQUy0kGPGuTM8LgXg-19">
          <mxGeometry relative="1" as="geometry" />
        </mxCell>
        <mxCell id="ZSzvQUy0kGPGuTM8LgXg-22" style="edgeStyle=orthogonalEdgeStyle;rounded=0;orthogonalLoop=1;jettySize=auto;html=1;" edge="1" parent="1" source="ZSzvQUy0kGPGuTM8LgXg-2" target="ZSzvQUy0kGPGuTM8LgXg-20">
          <mxGeometry relative="1" as="geometry" />
        </mxCell>
        <mxCell id="ZSzvQUy0kGPGuTM8LgXg-2" value="영화정보 검색" style="ellipse;whiteSpace=wrap;html=1;" vertex="1" parent="1">
          <mxGeometry x="250" y="-60" width="120" height="80" as="geometry" />
        </mxCell>
        <mxCell id="ZSzvQUy0kGPGuTM8LgXg-3" value="영화정보리스트" style="ellipse;whiteSpace=wrap;html=1;" vertex="1" parent="1">
          <mxGeometry x="250" y="210" width="120" height="80" as="geometry" />
        </mxCell>
        <mxCell id="ZSzvQUy0kGPGuTM8LgXg-17" style="edgeStyle=orthogonalEdgeStyle;rounded=0;orthogonalLoop=1;jettySize=auto;html=1;" edge="1" parent="1" source="ZSzvQUy0kGPGuTM8LgXg-4" target="ZSzvQUy0kGPGuTM8LgXg-16">
          <mxGeometry relative="1" as="geometry" />
        </mxCell>
        <mxCell id="ZSzvQUy0kGPGuTM8LgXg-4" value="영화평가남기" style="ellipse;whiteSpace=wrap;html=1;" vertex="1" parent="1">
          <mxGeometry x="250" y="440" width="120" height="80" as="geometry" />
        </mxCell>
        <mxCell id="ZSzvQUy0kGPGuTM8LgXg-26" style="edgeStyle=orthogonalEdgeStyle;rounded=0;orthogonalLoop=1;jettySize=auto;html=1;entryX=1;entryY=0.5;entryDx=0;entryDy=0;" edge="1" parent="1" source="ZSzvQUy0kGPGuTM8LgXg-5" target="ZSzvQUy0kGPGuTM8LgXg-19">
          <mxGeometry relative="1" as="geometry">
            <Array as="points">
              <mxPoint x="650" y="-80" />
            </Array>
          </mxGeometry>
        </mxCell>
        <mxCell id="ZSzvQUy0kGPGuTM8LgXg-27" style="edgeStyle=orthogonalEdgeStyle;rounded=0;orthogonalLoop=1;jettySize=auto;html=1;entryX=1;entryY=0.375;entryDx=0;entryDy=0;entryPerimeter=0;" edge="1" parent="1" source="ZSzvQUy0kGPGuTM8LgXg-5" target="ZSzvQUy0kGPGuTM8LgXg-20">
          <mxGeometry relative="1" as="geometry">
            <Array as="points">
              <mxPoint x="650" y="40" />
            </Array>
          </mxGeometry>
        </mxCell>
        <mxCell id="ZSzvQUy0kGPGuTM8LgXg-28" style="edgeStyle=orthogonalEdgeStyle;rounded=0;orthogonalLoop=1;jettySize=auto;html=1;entryX=1;entryY=0.5;entryDx=0;entryDy=0;" edge="1" parent="1" source="ZSzvQUy0kGPGuTM8LgXg-5" target="ZSzvQUy0kGPGuTM8LgXg-3">
          <mxGeometry relative="1" as="geometry">
            <Array as="points">
              <mxPoint x="530" y="250" />
              <mxPoint x="530" y="250" />
            </Array>
          </mxGeometry>
        </mxCell>
        <mxCell id="ZSzvQUy0kGPGuTM8LgXg-5" value="영화정보&lt;br&gt;api" style="shape=cylinder3;whiteSpace=wrap;html=1;boundedLbl=1;backgroundOutline=1;size=15;" vertex="1" parent="1">
          <mxGeometry x="580" y="170" width="120" height="150" as="geometry" />
        </mxCell>
        <mxCell id="ZSzvQUy0kGPGuTM8LgXg-18" style="edgeStyle=orthogonalEdgeStyle;rounded=0;orthogonalLoop=1;jettySize=auto;html=1;" edge="1" parent="1" source="ZSzvQUy0kGPGuTM8LgXg-16" target="ZSzvQUy0kGPGuTM8LgXg-5">
          <mxGeometry relative="1" as="geometry">
            <Array as="points">
              <mxPoint x="640" y="480" />
            </Array>
          </mxGeometry>
        </mxCell>
        <mxCell id="ZSzvQUy0kGPGuTM8LgXg-16" value="영수증 확인후 리뷰" style="ellipse;whiteSpace=wrap;html=1;" vertex="1" parent="1">
          <mxGeometry x="460" y="440" width="120" height="80" as="geometry" />
        </mxCell>
        <mxCell id="ZSzvQUy0kGPGuTM8LgXg-19" value="영화 감독 주연 평점&lt;br&gt;시청가능 OTT" style="ellipse;whiteSpace=wrap;html=1;" vertex="1" parent="1">
          <mxGeometry x="440" y="-120" width="120" height="80" as="geometry" />
        </mxCell>
        <mxCell id="ZSzvQUy0kGPGuTM8LgXg-20" value="영화 감독 주연 평점&lt;br&gt;상영일정" style="ellipse;whiteSpace=wrap;html=1;" vertex="1" parent="1">
          <mxGeometry x="440" y="10" width="120" height="80" as="geometry" />
        </mxCell>
      </root>
    </mxGraphModel>
  </diagram>
</mxfile>
